# xmcd
#
# Track frame offsets: 
#        150
#        2479
#        69866
#        98525
#        134239
#        162141
#        178997
#        180570
#        184612
#        200195
#        262184
#        274295
#
# Disc length: 4779 seconds
#
# Revision: 0
# Processed by: cddbd v1.5.2PL0 Copyright (c) Steve Scherf et al.
# Submitted via: ExactAudioCopy v0.95b4
#
DISCID=ae12a90c
DTITLE=The Beatles  - AB  Road - Complete Purple Chick Set v1.1 Jan.29
DTITLE=Various Artist - D1  FLAC
DYEAR=1900
DGENRE=
TTITLE0=Roll Announcement
TTITLE1=Dialogue
TTITLE2=Dialogue
TTITLE3=Singing The Blues 29.01
TTITLE4=Singing The Blues 29.02
TTITLE5=Rule, Brittania 29.03
TTITLE6=Get Back 27.63P
TTITLE7=I Walk The Line 29.04
TTITLE8=Singing The Blues 29.05
TTITLE9=Dialogue
TTITLE10=Singing The Blues 29.06
TTITLE11=Dialogue
EXTD=
EXTT0=
EXTT1=
EXTT2=
EXTT3=
EXTT4=
EXTT5=
EXTT6=
EXTT7=
EXTT8=
EXTT9=
EXTT10=
EXTT11=
PLAYORDER=
